<svg width="320" height="40" viewBox="0 0 320 40" fill="none" xmlns="http://www.w3.org/2000/svg">
<path d="M25.8427 24.6275H27.514V15.2797H25.8492L23.407 16.9899V18.5965L25.7326 16.964H25.8427V24.6275Z" fill="#111111"/>
<path d="M33.4349 24.8542C35.8123 24.8542 37.2245 22.995 37.2245 19.8467C37.2245 18.6612 36.9978 17.6636 36.5638 16.8927C35.9354 15.6943 34.8536 15.0465 33.4867 15.0465C31.4526 15.0465 30.0145 16.4134 30.0145 18.3309C30.0145 20.1317 31.3101 21.4403 33.0916 21.4403C34.1864 21.4403 35.0738 20.9285 35.5144 20.0411H35.5338C35.5338 20.0411 35.5597 20.0411 35.5662 20.0411C35.5791 20.0411 35.6245 20.0411 35.6245 20.0411C35.6245 22.1788 34.8147 23.455 33.4479 23.455C32.6446 23.455 32.0227 23.0145 31.8089 22.3084H30.1441C30.4226 23.8436 31.7247 24.8542 33.4349 24.8542ZM33.4932 20.1123C32.4179 20.1123 31.6535 19.3479 31.6535 18.279C31.6535 17.2361 32.4567 16.4393 33.4997 16.4393C34.5427 16.4393 35.3459 17.249 35.3459 18.3049C35.3459 19.3479 34.5621 20.1123 33.4932 20.1123Z" fill="#111111"/>
<path d="M40.1591 23.6364C40.7745 23.6364 41.1956 23.1958 41.1956 22.6128C41.1956 22.0233 40.7745 21.5893 40.1591 21.5893C39.5502 21.5893 39.1226 22.0233 39.1226 22.6128C39.1226 23.1958 39.5502 23.6364 40.1591 23.6364ZM40.1591 18.7778C40.7745 18.7778 41.1956 18.3438 41.1956 17.7608C41.1956 17.1713 40.7745 16.7373 40.1591 16.7373C39.5502 16.7373 39.1226 17.1713 39.1226 17.7608C39.1226 18.3438 39.5502 18.7778 40.1591 18.7778Z" fill="#111111"/>
<path d="M46.6889 24.8607C48.9238 24.8607 50.2518 23.0469 50.2518 19.9568C50.2518 16.8539 48.9044 15.0465 46.6889 15.0465C44.467 15.0465 43.1195 16.8539 43.1195 19.9439C43.1195 23.0469 44.4475 24.8607 46.6889 24.8607ZM46.6889 23.4744C45.5034 23.4744 44.8103 22.2436 44.8103 19.9439C44.8103 17.6636 45.5164 16.4393 46.6889 16.4393C47.8614 16.4393 48.5611 17.6571 48.5611 19.9439C48.5611 22.2436 47.8744 23.4744 46.6889 23.4744Z" fill="#111111"/>
<path d="M51.9879 18.0134V18.0393H53.5556V18.0134C53.5556 17.0612 54.2164 16.4198 55.1946 16.4198C56.1144 16.4198 56.7881 17.0158 56.7881 17.8385C56.7881 18.4993 56.4707 18.9851 55.1946 20.2807L52.0786 23.4679V24.6275H58.5696V23.2088H54.3718V23.0987L56.3282 21.1358C57.9153 19.5682 58.4271 18.739 58.4271 17.7349C58.4271 16.1737 57.0926 15.0465 55.2464 15.0465C53.3289 15.0465 51.9879 16.2644 51.9879 18.0134Z" fill="#111111"/>
<path opacity="0.44" fill-rule="evenodd" clip-rule="evenodd" d="M304.454 18.8785L304.861 19.1497C305.435 19.5328 305.78 20.1778 305.78 20.8685C305.78 21.5592 305.435 22.2042 304.861 22.5874L304.454 22.8586V18.8785ZM285.733 15.7828H301.948C302.843 15.7828 303.569 16.5748 303.569 17.5518V24.1852C303.569 25.1622 302.843 25.9542 301.948 25.9542H285.733C284.837 25.9542 284.111 25.1622 284.111 24.1852V17.5518C284.111 16.5748 284.837 15.7828 285.733 15.7828ZM285.8 16.6673C285.356 16.6673 284.996 17.0633 284.996 17.5518V24.1852C284.996 24.6737 285.356 25.0697 285.8 25.0697H301.881C302.325 25.0697 302.685 24.6737 302.685 24.1852V17.5518C302.685 17.0633 302.325 16.6673 301.881 16.6673H285.8Z" fill="#111111"/>
<path fill-rule="evenodd" clip-rule="evenodd" d="M286.654 17.5518H298.263V24.1852H286.654C286.227 24.1852 285.88 23.7893 285.88 23.3008V18.4362C285.88 17.9477 286.227 17.5518 286.654 17.5518Z" fill="#111111"/>
<path fill-rule="evenodd" clip-rule="evenodd" d="M259.788 16.6672C259.3 16.6672 258.904 17.0632 258.904 17.5517V24.6274C258.904 25.1159 259.3 25.5119 259.788 25.5119H260.673C261.161 25.5119 261.557 25.1159 261.557 24.6274V17.5517C261.557 17.0632 261.161 16.6672 260.673 16.6672H259.788ZM254.924 19.3206C254.924 18.8322 255.32 18.4362 255.808 18.4362H256.693C257.181 18.4362 257.577 18.8322 257.577 19.3206V24.6274C257.577 25.1159 257.181 25.5119 256.693 25.5119H255.808C255.32 25.5119 254.924 25.1159 254.924 24.6274V19.3206ZM251.828 20.2051C251.34 20.2051 250.944 20.6011 250.944 21.0896V24.6274C250.944 25.1159 251.34 25.5119 251.828 25.5119H252.713C253.201 25.5119 253.597 25.1159 253.597 24.6274V21.0896C253.597 20.6011 253.201 20.2051 252.713 20.2051H251.828ZM247.848 25.5119C247.36 25.5119 246.964 25.1159 246.964 24.6274V22.4163C246.964 21.9278 247.36 21.5318 247.848 21.5318H248.733C249.221 21.5318 249.617 21.9278 249.617 22.4163V24.6274C249.617 25.1159 249.221 25.5119 248.733 25.5119H247.848Z" fill="#111111"/>
<path d="M273.176 17.7971C275.136 17.7971 277.021 18.5502 278.441 19.9006C278.548 20.0049 278.719 20.0035 278.825 19.8977L279.847 18.8658C279.9 18.8121 279.93 18.7393 279.93 18.6636C279.929 18.5879 279.899 18.5155 279.845 18.4625C276.117 14.8896 270.235 14.8896 266.507 18.4625C266.453 18.5155 266.422 18.5879 266.422 18.6636C266.421 18.7393 266.451 18.812 266.504 18.8658L267.527 19.8977C267.632 20.0037 267.803 20.005 267.91 19.9006C269.331 18.5501 271.216 17.797 273.176 17.7971ZM273.176 21.1542C274.253 21.1541 275.291 21.5544 276.09 22.2772C276.198 22.3797 276.368 22.3775 276.473 22.2721L277.494 21.2403C277.548 21.1861 277.578 21.1127 277.577 21.0364C277.576 20.9601 277.545 20.8873 277.49 20.8343C275.059 18.5733 271.295 18.5733 268.864 20.8343C268.809 20.8873 268.778 20.9602 268.777 21.0365C268.777 21.1128 268.807 21.1862 268.861 21.2403L269.881 22.2721C269.987 22.3775 270.157 22.3797 270.265 22.2772C271.062 21.5548 272.1 21.1546 273.176 21.1542ZM275.139 23.6168C275.193 23.5632 275.223 23.4895 275.222 23.4129C275.22 23.3364 275.187 23.264 275.13 23.2126C274.002 22.2584 272.35 22.2584 271.222 23.2126C271.165 23.2639 271.132 23.3364 271.13 23.4129C271.129 23.4894 271.159 23.5632 271.213 23.6168L272.98 25.3996C273.032 25.452 273.102 25.4815 273.176 25.4815C273.25 25.4815 273.32 25.452 273.372 25.3996L275.139 23.6168Z" fill="#111111"/>
</svg>
