<svg width="38" height="6" viewBox="0 0 38 6" fill="none" xmlns="http://www.w3.org/2000/svg">
<path d="M3.07332 3.47693H3.27191V2.36621H3.07409L2.78391 2.56942V2.76031L3.06024 2.56634H3.07332V3.47693Z" fill="#111111"/>
<path d="M3.97544 3.50387C4.25793 3.50387 4.42573 3.28296 4.42573 2.90887C4.42573 2.76801 4.39879 2.64947 4.34722 2.55787C4.27256 2.41547 4.14401 2.3385 3.9816 2.3385C3.73991 2.3385 3.56903 2.50091 3.56903 2.72875C3.56903 2.94274 3.72297 3.09822 3.93465 3.09822C4.06473 3.09822 4.17018 3.03741 4.22252 2.93196H4.22483C4.22483 2.93196 4.22791 2.93196 4.22868 2.93196C4.23022 2.93196 4.23561 2.93196 4.23561 2.93196C4.23561 3.18597 4.13939 3.33761 3.97698 3.33761C3.88153 3.33761 3.80764 3.28526 3.78224 3.20136H3.58442C3.61752 3.38379 3.77223 3.50387 3.97544 3.50387ZM3.98237 2.94043C3.85459 2.94043 3.76377 2.8496 3.76377 2.72259C3.76377 2.59867 3.85921 2.50399 3.98314 2.50399C4.10706 2.50399 4.20251 2.60021 4.20251 2.72567C4.20251 2.8496 4.10937 2.94043 3.98237 2.94043Z" fill="#111111"/>
<path d="M4.77442 3.35916C4.84754 3.35916 4.89757 3.30682 4.89757 3.23754C4.89757 3.1675 4.84754 3.11592 4.77442 3.11592C4.70206 3.11592 4.65126 3.1675 4.65126 3.23754C4.65126 3.30682 4.70206 3.35916 4.77442 3.35916ZM4.77442 2.78186C4.84754 2.78186 4.89757 2.73029 4.89757 2.66102C4.89757 2.59097 4.84754 2.5394 4.77442 2.5394C4.70206 2.5394 4.65126 2.59097 4.65126 2.66102C4.65126 2.73029 4.70206 2.78186 4.77442 2.78186Z" fill="#111111"/>
<path d="M5.5503 3.50464C5.81586 3.50464 5.97365 3.28911 5.97365 2.92195C5.97365 2.55325 5.81355 2.3385 5.5503 2.3385C5.28629 2.3385 5.12618 2.55325 5.12618 2.92041C5.12618 3.28911 5.28398 3.50464 5.5503 3.50464ZM5.5503 3.33991C5.40944 3.33991 5.32708 3.19367 5.32708 2.92041C5.32708 2.64947 5.41098 2.50399 5.5503 2.50399C5.68962 2.50399 5.77275 2.6487 5.77275 2.92041C5.77275 3.19367 5.69116 3.33991 5.5503 3.33991Z" fill="#111111"/>
<path d="M6.17994 2.69104V2.69411H6.36621V2.69104C6.36621 2.57789 6.44472 2.50168 6.56095 2.50168C6.67025 2.50168 6.7503 2.5725 6.7503 2.67025C6.7503 2.74877 6.71259 2.80649 6.56095 2.96044L6.19071 3.33915V3.47693H6.96198V3.30836H6.4632V3.29527L6.69565 3.06204C6.88424 2.87577 6.94505 2.77725 6.94505 2.65794C6.94505 2.47243 6.78648 2.3385 6.56711 2.3385C6.33927 2.3385 6.17994 2.48321 6.17994 2.69104Z" fill="#111111"/>
<path opacity="0.44" fill-rule="evenodd" clip-rule="evenodd" d="M36.2122 2.79385L36.2605 2.82608C36.3288 2.8716 36.3698 2.94824 36.3698 3.03031C36.3698 3.11238 36.3288 3.18902 36.2605 3.23455L36.2122 3.26677V2.79385ZM33.9877 2.42603H35.9144C36.0208 2.42603 36.1071 2.52013 36.1071 2.63621V3.42441C36.1071 3.54049 36.0208 3.6346 35.9144 3.6346H33.9877C33.8813 3.6346 33.795 3.54049 33.795 3.42441V2.63621C33.795 2.52013 33.8813 2.42603 33.9877 2.42603ZM33.9957 2.53112C33.9429 2.53112 33.9001 2.57817 33.9001 2.63621V3.42441C33.9001 3.48245 33.9429 3.5295 33.9957 3.5295H35.9064C35.9592 3.5295 36.002 3.48245 36.002 3.42441V2.63621C36.002 2.57817 35.9592 2.53112 35.9064 2.53112H33.9957Z" fill="#111111"/>
<path fill-rule="evenodd" clip-rule="evenodd" d="M34.0972 2.63623H35.4765V3.42443H34.0972C34.0464 3.42443 34.0052 3.37738 34.0052 3.31934V2.74132C34.0052 2.68328 34.0464 2.63623 34.0972 2.63623Z" fill="#111111"/>
<path fill-rule="evenodd" clip-rule="evenodd" d="M30.905 2.53113C30.8469 2.53113 30.7999 2.57818 30.7999 2.63622V3.47697C30.7999 3.53501 30.8469 3.58206 30.905 3.58206H31.01C31.0681 3.58206 31.1151 3.53501 31.1151 3.47697V2.63622C31.1151 2.57818 31.0681 2.53113 31.01 2.53113H30.905ZM30.3269 2.84641C30.3269 2.78837 30.374 2.74132 30.432 2.74132H30.5371C30.5952 2.74132 30.6422 2.78837 30.6422 2.84641V3.47697C30.6422 3.53502 30.5952 3.58207 30.5371 3.58207H30.432C30.374 3.58207 30.3269 3.53502 30.3269 3.47697V2.84641ZM29.9591 2.9515C29.9011 2.9515 29.854 2.99855 29.854 3.05659V3.47697C29.854 3.53501 29.9011 3.58206 29.9591 3.58206H30.0642C30.1223 3.58206 30.1693 3.53501 30.1693 3.47697V3.05659C30.1693 2.99855 30.1223 2.9515 30.0642 2.9515H29.9591ZM29.4862 3.58207C29.4282 3.58207 29.3811 3.53501 29.3811 3.47697V3.21424C29.3811 3.1562 29.4282 3.10915 29.4862 3.10915H29.5913C29.6493 3.10915 29.6964 3.1562 29.6964 3.21424V3.47697C29.6964 3.53501 29.6493 3.58207 29.5913 3.58207H29.4862Z" fill="#111111"/>
<path d="M32.4957 2.66536C32.7286 2.66537 32.9526 2.75485 33.1213 2.9153C33.134 2.92769 33.1544 2.92754 33.1669 2.91495L33.2884 2.79234C33.2947 2.78596 33.2982 2.77732 33.2982 2.76833C33.2981 2.75933 33.2945 2.75073 33.2881 2.74442C32.8451 2.31989 32.1463 2.31989 31.7033 2.74442C31.6969 2.75072 31.6932 2.75932 31.6932 2.76832C31.6931 2.77731 31.6966 2.78596 31.703 2.79234L31.8245 2.91495C31.837 2.92755 31.8573 2.92771 31.87 2.9153C32.0388 2.75484 32.2628 2.66536 32.4957 2.66536ZM32.4957 3.06426C32.6237 3.06425 32.7471 3.11181 32.8419 3.19769C32.8547 3.20988 32.8749 3.20961 32.8874 3.19709L33.0088 3.07449C33.0152 3.06805 33.0187 3.05933 33.0186 3.05026C33.0185 3.0412 33.0148 3.03255 33.0083 3.02625C32.7195 2.75759 32.2722 2.75759 31.9834 3.02625C31.9769 3.03255 31.9731 3.0412 31.9731 3.05027C31.973 3.05934 31.9765 3.06806 31.9829 3.07449L32.1042 3.19709C32.1167 3.20961 32.137 3.20988 32.1498 3.19769C32.2446 3.11186 32.3679 3.06431 32.4957 3.06426ZM32.7289 3.35687C32.7354 3.3505 32.739 3.34174 32.7388 3.33265C32.7386 3.32355 32.7347 3.31494 32.7279 3.30884C32.5939 3.19546 32.3975 3.19546 32.2635 3.30884C32.2567 3.31494 32.2528 3.32355 32.2526 3.33264C32.2524 3.34173 32.256 3.3505 32.2625 3.35687L32.4724 3.5687C32.4786 3.57493 32.487 3.57843 32.4957 3.57843C32.5045 3.57843 32.5129 3.57493 32.519 3.5687L32.7289 3.35687Z" fill="#111111"/>
</svg>
