<svg width="142" height="33" viewBox="0 0 142 33" fill="none" xmlns="http://www.w3.org/2000/svg">
<path d="M30.762 3.90112C33.5646 7.77075 35.145 12.1526 35.145 16.7944C35.145 21.4363 33.5645 25.8182 30.762 29.6878C37.2497 27.2033 41.6533 22.361 41.6533 16.7945C41.6533 11.2279 37.2498 6.3857 30.762 3.90112Z" fill="#8DC63F"/>
<path d="M21.397 3.5935C20.4549 2.65373 18.8502 2.14761 17.2408 2.3443C7.4473 3.54118 0 9.55531 0 16.7944C0 24.0334 7.44725 30.0476 17.2407 31.2445C18.8501 31.4411 20.4549 30.935 21.3969 29.9953C25.1376 26.2635 27.335 21.7096 27.335 16.7943C27.335 11.8791 25.1376 7.32529 21.397 3.5935Z" fill="#AFD779"/>
<path d="M50.85 22.0601V20.9194C50.85 20.258 51.0423 19.6851 51.4269 19.2007C51.8189 18.7163 52.3181 18.3361 52.9246 18.0601C53.531 17.784 54.204 17.547 54.9436 17.3491C55.6832 17.1512 56.4228 16.9924 57.1624 16.8726C57.9094 16.7476 58.5861 16.6226 59.1925 16.4976C60.5682 16.2059 61.256 15.7918 61.256 15.2554C61.256 14.672 61.0415 14.2736 60.6125 14.0601C60.1836 13.8465 59.4588 13.7397 58.4382 13.7397H57.6505C56.2231 13.7397 55.2838 14.0601 54.8327 14.7007C54.4999 15.1903 54.0007 15.4351 53.335 15.4351H52.0149C51.6525 15.4351 51.3714 15.3439 51.1718 15.1616C50.9721 14.9793 50.8722 14.7814 50.8722 14.5679C50.8722 13.9741 51.1939 13.4403 51.8374 12.9663C52.4882 12.4871 53.2944 12.1278 54.2558 11.8882C55.2173 11.6486 56.2194 11.5288 57.2622 11.5288H58.7599C62.0067 11.5288 64.0627 12.1642 64.928 13.4351C65.2682 13.9351 65.4383 14.5158 65.4383 15.1772C65.4383 15.8387 65.246 16.4012 64.8614 16.8647C64.4769 17.3283 63.9813 17.6981 63.3749 17.9741C62.7684 18.245 62.0917 18.4793 61.3447 18.6772C60.6051 18.8752 59.8656 19.0392 59.126 19.1694C58.3864 19.2944 57.7134 19.4142 57.1069 19.5288C55.7239 19.7996 55.0324 20.1512 55.0324 20.5835H64.2402C64.5434 20.5835 64.7949 20.6564 64.9946 20.8022C65.2017 20.9481 65.3052 21.1226 65.3052 21.3257V22.0601C65.3052 22.2632 65.198 22.4377 64.9835 22.5835C64.7764 22.7241 64.5286 22.7944 64.2402 22.7944H51.9261C51.6377 22.7944 51.3862 22.7241 51.1718 22.5835C50.9573 22.4377 50.85 22.2632 50.85 22.0601Z" fill="black"/>
<path d="M66.4035 22.0757L69.188 14.6382C69.9424 12.6121 72.3978 11.5965 76.5543 11.5913H82.5338C82.8074 11.5913 83.033 11.6642 83.2105 11.8101C83.3954 11.9559 83.4878 12.1252 83.4878 12.3179V22.0757C83.4878 22.2788 83.3843 22.4507 83.1772 22.5913C82.9701 22.7267 82.7224 22.7944 82.4339 22.7944H80.3483C80.0451 22.7944 79.7936 22.7267 79.5939 22.5913C79.4017 22.4507 79.3055 22.2736 79.3055 22.0601V20.0913H71.4178L70.6746 22.0601C70.6006 22.2736 70.4342 22.4507 70.1753 22.5913C69.9165 22.7267 69.6428 22.7944 69.3544 22.7944H67.1689C66.8805 22.7944 66.6734 22.7371 66.5477 22.6226C66.422 22.5028 66.3591 22.3986 66.3591 22.3101C66.3665 22.2215 66.3813 22.1434 66.4035 22.0757ZM72.2388 17.8804H79.3055V13.8022H76.1438C75.4338 13.8022 74.8125 13.9455 74.28 14.2319C73.7549 14.5132 73.3999 14.8934 73.215 15.3726L72.2388 17.8804Z" fill="black"/>
<path d="M86.6607 22.0757V12.3491C86.6607 12.1356 86.7642 11.9559 86.9713 11.8101C87.1784 11.6642 87.4261 11.5913 87.7146 11.5913H89.8002C90.0886 11.5913 90.3327 11.6642 90.5324 11.8101C90.7395 11.9559 90.843 12.1356 90.843 12.3491V20.5835H100.506C100.794 20.5835 101.038 20.6564 101.238 20.8022C101.445 20.9481 101.548 21.1226 101.548 21.3257V22.0601C101.548 22.2632 101.445 22.4377 101.238 22.5835C101.038 22.7241 100.794 22.7944 100.506 22.7944H87.7146C87.4261 22.7944 87.1784 22.7267 86.9713 22.5913C86.7642 22.4507 86.6607 22.2788 86.6607 22.0757Z" fill="black"/>
<path d="M103.368 22.0757V12.3491C103.368 12.1356 103.471 11.9559 103.678 11.8101C103.886 11.6642 104.133 11.5913 104.422 11.5913H106.507C106.796 11.5913 107.04 11.6642 107.24 11.8101C107.447 11.9559 107.55 12.1356 107.55 12.3491V20.5835H117.213C117.501 20.5835 117.745 20.6564 117.945 20.8022C118.152 20.9481 118.256 21.1226 118.256 21.3257V22.0601C118.256 22.2632 118.152 22.4377 117.945 22.5835C117.745 22.7241 117.501 22.7944 117.213 22.7944H104.422C104.133 22.7944 103.886 22.7267 103.678 22.5913C103.471 22.4507 103.368 22.2788 103.368 22.0757Z" fill="black"/>
</svg>
