<svg width="19" height="19" viewBox="0 0 19 19" fill="none" xmlns="http://www.w3.org/2000/svg">
<rect width="18.0134" height="18.0134" transform="translate(0.310455 0.649658)" fill="white"/>
<g clip-path="url(#clip0_1_12725)">
<path d="M9.70343 4.41692C9.57481 4.40742 9.44587 4.40267 9.31689 4.40266V3.6521C9.46441 3.65217 9.61187 3.65768 9.75897 3.66861L9.70343 4.41692ZM11.2076 4.75467C10.967 4.66183 10.7199 4.58682 10.4683 4.53026L10.6326 3.79771C10.9201 3.86226 11.2031 3.94782 11.4778 4.0544L11.2076 4.75467V4.75467ZM12.2358 5.28757C12.1285 5.216 12.0186 5.14841 11.9063 5.08492L12.2764 4.43193C12.533 4.57734 12.7786 4.74141 13.0112 4.9228L12.5496 5.51499C12.4478 5.4356 12.3432 5.36 12.2358 5.28832V5.28757ZM13.6124 6.63107C13.4639 6.42015 13.3001 6.22046 13.1222 6.03363L13.6656 5.51574C13.8683 5.72965 14.0559 5.95857 14.2263 6.19875L13.6124 6.63107V6.63107ZM14.1708 7.64583C14.1215 7.52684 14.0679 7.40967 14.0101 7.29457L14.6804 6.95682C14.8129 7.22033 14.9258 7.49327 15.0181 7.77343L14.3051 8.00835C14.2648 7.88591 14.22 7.76499 14.1708 7.64583V7.64583ZM14.5686 9.52749C14.5625 9.26955 14.5374 9.01241 14.4935 8.75816L15.2328 8.63057C15.2831 8.92028 15.3124 9.2145 15.3199 9.50872L14.5693 9.52749H14.5686ZM14.4702 10.6818C14.495 10.5543 14.5153 10.4274 14.531 10.2991L15.2763 10.3914C15.2403 10.6842 15.1826 10.974 15.1037 11.2583L14.3802 11.0579C14.4147 10.934 14.4447 10.8087 14.4702 10.6818V10.6818ZM13.7557 12.4674C13.8938 12.2498 14.0154 12.0216 14.1205 11.7859L14.8065 12.0899C14.6864 12.3601 14.5475 12.6198 14.3899 12.869L13.7557 12.4674ZM13.0322 13.3719C13.1237 13.2803 13.2116 13.1857 13.2949 13.0881L13.8638 13.5783C13.7674 13.69 13.6671 13.7981 13.5628 13.9025L13.0322 13.3719V13.3719Z" fill="#475467"/>
<path d="M9.31689 4.40266C8.4529 4.40272 7.60226 4.61585 6.84032 5.02318C6.07838 5.4305 5.42864 6.01944 4.94867 6.73784C4.46869 7.45624 4.17329 8.28192 4.08863 9.14174C4.00397 10.0016 4.13265 10.869 4.46329 11.6672C4.79394 12.4654 5.31633 13.1698 5.98419 13.7179C6.65206 14.266 7.44479 14.641 8.29217 14.8095C9.13955 14.9781 10.0154 14.9351 10.8422 14.6843C11.669 14.4336 12.4212 13.9828 13.0322 13.3719L13.5628 13.9025C12.8646 14.6011 12.0048 15.1167 11.0597 15.4036C10.1146 15.6905 9.11331 15.7399 8.14456 15.5473C7.17581 15.3548 6.2695 14.9263 5.50595 14.2997C4.7424 13.6732 4.14518 12.868 3.76719 11.9555C3.38921 11.0429 3.24214 10.0513 3.33901 9.06834C3.43589 8.0854 3.77371 7.14153 4.32256 6.32035C4.8714 5.49918 5.61432 4.82606 6.48549 4.36063C7.35666 3.8952 8.32918 3.65184 9.31689 3.6521V4.40266Z" fill="#475467"/>
<path d="M8.94163 5.90381C9.04116 5.90381 9.13661 5.94335 9.20699 6.01373C9.27737 6.0841 9.31691 6.17956 9.31691 6.27909V10.1895L11.7547 11.5825C11.8386 11.6332 11.8994 11.7146 11.9241 11.8094C11.9487 11.9043 11.9353 12.005 11.8867 12.0901C11.8381 12.1752 11.7581 12.2378 11.6639 12.2647C11.5697 12.2916 11.4687 12.2806 11.3824 12.234L8.75549 10.7329C8.69805 10.7001 8.6503 10.6527 8.61709 10.5955C8.58387 10.5383 8.56637 10.4733 8.56635 10.4072V6.27909C8.56635 6.17956 8.60588 6.0841 8.67626 6.01373C8.74664 5.94335 8.84209 5.90381 8.94163 5.90381V5.90381Z" fill="#475467"/>
</g>
<defs>
<clipPath id="clip0_1_12725">
<rect width="12.009" height="12.009" fill="white" transform="translate(3.31241 3.6521)"/>
</clipPath>
</defs>
</svg>
