<svg width="48" height="48" viewBox="0 0 48 48" fill="none" xmlns="http://www.w3.org/2000/svg">
<g id="Frame 427320394">
<rect width="48" height="48" fill="white"/>
<g id="Group">
<path id="Vector" fill-rule="evenodd" clip-rule="evenodd" d="M24.0361 12.8145C31.6401 12.8145 37.8062 18.9945 37.8062 26.615C37.8062 34.2361 31.6401 40.4161 24.0361 40.4161C16.4327 40.4161 10.2666 34.2361 10.2666 26.615C10.2666 18.9945 16.4327 12.8145 24.0361 12.8145ZM24.0361 16.421C29.6532 16.421 34.2077 20.9858 34.2077 26.615C34.2077 32.2448 29.6532 36.8096 24.0361 36.8096C18.4196 36.8096 13.8645 32.2448 13.8645 26.615C13.8645 20.9858 18.4196 16.421 24.0361 16.421Z" fill="black"/>
<path id="Vector_2" fill-rule="evenodd" clip-rule="evenodd" d="M5.65229 8.5724C7.66924 8.5724 9.30458 11.0855 9.30458 14.1854C9.30458 16.5226 8.37457 18.5261 7.05252 19.3706V39.6263C6.2001 40.8039 5.26662 40.8039 4.25206 39.6263V19.37C2.93001 18.5261 2 16.522 2 14.1853C2 11.0855 3.63533 8.5724 5.65229 8.5724Z" fill="black"/>
<path id="Vector_3" fill-rule="evenodd" clip-rule="evenodd" d="M46.0008 18.4993C46.0008 19.183 44.1645 19.2347 43.8188 19.4547V39.7104C42.9669 40.888 42.0335 40.888 41.0189 39.7104V19.4547C40.6738 19.2335 38.8369 19.1836 38.8369 18.4993C38.8369 15.3112 38.8369 12.1377 38.8369 8.94784C38.8369 8.57639 39.4316 8.31638 40.2777 8.16373V16.858H41.6663V8.01632C42.1545 7.9931 42.6612 7.99484 43.1494 8.02038V16.858H44.5386V8.17302C45.3962 8.32856 46.0008 8.588 46.0008 8.94784C46.0008 12.1377 46.0008 15.3113 46.0008 18.4993Z" fill="black"/>
<path id="Vector_4" fill-rule="evenodd" clip-rule="evenodd" d="M24.035 17.5841C29.011 17.5841 33.0461 21.6283 33.0461 26.615C33.0461 31.6023 29.011 35.6465 24.035 35.6465C19.0595 35.6465 15.0244 31.6023 15.0244 26.615C15.0244 21.6283 19.0595 17.5841 24.035 17.5841Z" fill="black"/>
</g>
</g>
</svg>
