<svg width="48" height="48" viewBox="0 0 48 48" fill="none" xmlns="http://www.w3.org/2000/svg">
<g id="Friver ">
<rect width="48" height="48" fill="white"/>
<g id="Group">
<path id="Vector" fill-rule="evenodd" clip-rule="evenodd" d="M44.0563 37.0036C44.1923 37.4873 44.2694 37.9937 44.2694 38.5181C44.2694 41.5154 41.835 43.9431 38.8294 43.9431C36.0006 43.9431 33.675 41.7867 33.4121 39.0335C34.3868 38.6944 35.3025 38.179 36.2364 37.6998C36.1548 37.9575 36.1094 38.2333 36.1094 38.5181C36.1094 40.0145 37.3289 41.2306 38.8294 41.2306C40.3299 41.2306 41.5494 40.0145 41.5494 38.5181C41.5494 37.6727 41.1595 36.9132 40.5521 36.4159C41.6355 36.3842 42.7371 36.5741 43.9475 36.9719C43.9838 36.9855 44.02 36.9945 44.0563 37.0036Z" fill="black"/>
<path id="Vector_2" fill-rule="evenodd" clip-rule="evenodd" d="M28.2942 31.7232C28.5707 32.3832 29.083 33.093 29.7901 33.093H31.4765C34.269 33.093 34.0605 25.177 33.7704 22.0802C33.2581 21.9807 32.7323 21.8677 32.2291 21.7366C32.5011 21.5241 32.7277 21.2438 32.8819 20.9092C33.2491 20.1181 33.1085 19.2139 32.6008 18.5674C34.0786 18.2148 35.6608 18.0023 36.4088 18.0023C38 18.0023 39.2919 18.9879 39.2919 20.1995C39.2919 20.9997 38.7298 21.7004 37.8866 22.0847C38.825 25.9591 42.4834 31.8905 43.9839 33.9927C44.9994 35.4168 45.0492 36.3842 44.2332 36.1175C37.524 33.8932 35.0896 38.5181 31.2907 38.5181H26.9432H24.2233H11.0767C9.83002 38.5181 8.5471 37.4738 8.81003 36.2576L9.83909 31.4565C9.92975 31.0405 9.57616 30.3805 9.15003 30.3805H6.99671C6.24871 30.3805 5.63672 29.7702 5.63672 29.0242C5.63672 28.2783 6.24871 27.668 6.99671 27.668H22.6366C23.2894 27.668 23.2939 27.998 23.1217 28.423C22.9358 28.8796 22.7409 29.309 22.6502 29.517C22.2739 30.3579 21.8659 31.2123 21.4398 32.0261C21.1134 32.6409 20.7915 33.2558 20.4878 33.8842C19.8441 35.2314 20.4153 36.8454 21.7662 37.4918C23.1171 38.1338 24.7355 37.5642 25.3838 36.2169C25.6512 35.6564 25.955 35.1003 26.2451 34.5487C26.7392 33.6129 27.2243 32.6635 27.6595 31.6961C27.7955 31.3932 28.072 31.1897 28.2942 31.7232Z" fill="black"/>
<path id="Vector_3" fill-rule="evenodd" clip-rule="evenodd" d="M21.802 39.4222C21.3713 41.9901 19.1318 43.9431 16.4391 43.9431C13.7418 43.9431 11.5068 41.9901 11.0762 39.4222H13.8732C14.2495 40.4756 15.2559 41.2306 16.4391 41.2306C17.6223 41.2306 18.6287 40.4756 19.0049 39.4222H21.802Z" fill="black"/>
<path id="Vector_4" d="M21.6207 14.476C24.0233 11.3159 26.4804 15.353 28.1668 16.6958C29.223 17.5412 30.3971 18.2781 31.3945 18.7347C32.0745 19.0511 32.3691 19.8558 32.0563 20.534C31.7435 21.2121 30.9366 21.506 30.2566 21.194C29.087 20.656 27.718 19.7971 26.4758 18.807C25.5828 18.0927 25.4468 18.3911 25.1521 18.8432C24.3361 20.1045 23.6924 21.4517 23.2391 22.9074C24.7351 22.7989 26.2446 22.7402 27.455 23.7438C29.8985 25.7737 26.5166 32.0894 25.4423 34.1283C25.0841 34.8064 24.7532 35.4303 24.5673 35.8281C24.1367 36.7233 23.0577 37.103 22.1556 36.6735C21.258 36.2486 20.8772 35.1726 21.3079 34.2729C21.598 33.6626 21.9063 33.0794 22.2417 32.4465C22.5001 31.9582 23.8737 29.1508 24.3543 27.677C24.5764 26.9988 24.2001 26.7638 23.8647 26.7638C23.0124 26.7638 21.9788 26.7638 21.2716 26.7638C15.945 26.7638 17.2868 22.6543 18.9506 18.9245C19.6442 17.3694 20.5282 15.9091 21.6207 14.476Z" fill="black"/>
<path id="Vector_5" d="M25.35 13.1398C27.0424 13.592 28.8347 12.3944 29.3531 10.4649C29.8716 8.53529 28.9199 6.60446 27.2275 6.15222C25.5351 5.69999 23.7428 6.89759 23.2244 8.82715C22.7059 10.7567 23.6576 12.6875 25.35 13.1398Z" fill="black"/>
<path id="Vector_6" fill-rule="evenodd" clip-rule="evenodd" d="M15.7866 15.9137H4.90666C4.408 15.9137 4 16.3206 4 16.8179V25.8596C4 26.3569 4.408 26.7638 4.90666 26.7638H15.7866C16.2852 26.7638 16.6932 26.3569 16.6932 25.8596V16.8179C16.6932 16.3206 16.2852 15.9137 15.7866 15.9137Z" fill="black"/>
</g>
</g>
</svg>
