<svg width="16" height="17" viewBox="0 0 16 17" fill="none" xmlns="http://www.w3.org/2000/svg">
<g clip-path="url(#clip0_1_13100)">
<path d="M6.06001 6.79441C6.21675 6.34886 6.52611 5.97315 6.93331 5.73384C7.34052 5.49452 7.81927 5.40704 8.28479 5.48689C8.75032 5.56674 9.17255 5.80876 9.47673 6.1701C9.7809 6.53143 9.94738 6.98876 9.94668 7.46108C9.94668 8.79441 7.94668 9.46108 7.94668 9.46108M8.00001 12.1277H8.00668M14.6667 8.79441C14.6667 12.4763 11.6819 15.4611 8.00001 15.4611C4.31811 15.4611 1.33334 12.4763 1.33334 8.79441C1.33334 5.11251 4.31811 2.12775 8.00001 2.12775C11.6819 2.12775 14.6667 5.11251 14.6667 8.79441Z" stroke="#98A2B3" stroke-width="1.33333" stroke-linecap="round" stroke-linejoin="round"/>
</g>
<defs>
<clipPath id="clip0_1_13100">
<rect width="16" height="16" fill="white" transform="translate(0 0.794434)"/>
</clipPath>
</defs>
</svg>
