<svg width="24" height="24" viewBox="0 0 24 24" fill="none" xmlns="http://www.w3.org/2000/svg">
<g id="marker-pin-02">
<g id="icon">
<path id="Vector 333" d="M18.3406 14.4397C18.0555 16.9387 15.9879 19.4377 12.3558 19.4377C6.19468 19.4377 4.93534 13.4879 8.91504 10.4413C12.1086 7.99651 12.4085 7.67476 12.1944 4.64892C12.1895 4.57932 12.2839 4.54059 12.3372 4.5915C14.361 6.52333 14.8629 8.51254 13.8432 12.8088C13.8296 12.8659 13.8902 12.9157 13.9507 12.8938C15.441 12.3535 16.5944 10.5782 16.7004 9.15202C16.7056 9.08166 16.8042 9.05171 16.8495 9.10949C17.7132 10.2128 18.5405 12.687 18.3406 14.4397Z" fill="#8DC63F"/>
<path id="Vector 333 (Stroke)" fill-rule="evenodd" clip-rule="evenodd" d="M11.5669 4.68443C11.5275 4.12758 12.3103 3.74293 12.7967 4.2072C13.8734 5.23502 14.5749 6.31105 14.8513 7.71612C15.0714 8.83507 15.0159 10.1335 14.7124 11.7422C14.9288 11.5433 15.1316 11.3114 15.3133 11.0546C15.7548 10.4305 16.0281 9.7194 16.073 9.11477C16.094 8.83268 16.3093 8.62304 16.5645 8.54836C16.8287 8.47103 17.1661 8.53298 17.3651 8.78714C17.8548 9.4127 18.3019 10.3761 18.6021 11.3868C18.9033 12.4005 19.0769 13.5295 18.9666 14.4968C18.6572 17.2085 16.3881 20 12.356 20C9.00956 20 6.89531 18.3584 6.22731 16.2342C5.57111 14.1474 6.33713 11.6747 8.50614 10.0143C10.1397 8.76373 10.8972 8.14859 11.2755 7.50233C11.6309 6.89515 11.6749 6.211 11.5669 4.68443L12.1946 4.64894L11.5669 4.68443ZM12.8738 6.12937C12.8509 6.85679 12.7241 7.45334 12.3902 8.02372C11.8737 8.906 10.8845 9.67414 9.32448 10.8684L9.32447 10.8684C7.51378 12.2545 6.91962 14.28 7.43843 15.9298C7.94544 17.5421 9.54141 18.8755 12.356 18.8755C15.5883 18.8755 17.4542 16.669 17.715 14.3827C17.8046 13.5973 17.6646 12.6128 17.3862 11.6754C17.2687 11.28 17.1302 10.905 16.9813 10.5675C16.8233 10.9452 16.6181 11.3142 16.3766 11.6556C15.8447 12.4075 15.093 13.0865 14.1874 13.4149C13.604 13.6264 13.1226 13.1366 13.2281 12.6921C13.7319 10.5696 13.8425 9.08143 13.6123 7.91089C13.4818 7.24749 13.2388 6.67184 12.8738 6.12937Z" fill="#8DC63F"/>
</g>
</g>
</svg>
