<svg width="42" height="30" viewBox="0 0 42 30" fill="none" xmlns="http://www.w3.org/2000/svg">
<path d="M30.7621 2.10645C33.5646 5.97607 35.145 10.3579 35.145 14.9998C35.145 19.6416 33.5646 24.0235 30.762 27.8932C37.2498 25.4086 41.6533 20.5663 41.6533 14.9998C41.6533 9.43326 37.2498 4.59102 30.7621 2.10645Z" fill="#8DC63F"/>
<path d="M21.397 1.79907C20.455 0.859297 18.8502 0.353177 17.2408 0.549865C7.4473 1.74674 0 7.76088 0 14.9999C0 22.239 7.44725 28.2531 17.2407 29.45C18.8501 29.6467 20.4549 29.1406 21.3969 28.2008C25.1376 24.469 27.335 19.9152 27.335 14.9999C27.335 10.0847 25.1376 5.53086 21.397 1.79907Z" fill="#C6F867"/>
</svg>
