<svg width="4" height="3" viewBox="0 0 4 3" fill="none" xmlns="http://www.w3.org/2000/svg">
<g clip-path="url(#clip0_1_13714)">
<path d="M2.45241 1.99395C2.42464 2.23745 2.22318 2.48094 1.86927 2.48094C1.26895 2.48094 1.14625 1.90121 1.53402 1.60436C1.84519 1.36615 1.87441 1.3348 1.85355 1.03997C1.85307 1.03318 1.86227 1.02941 1.86747 1.03437C2.06465 1.2226 2.11357 1.41643 2.0142 1.83504C2.01288 1.8406 2.01879 1.84546 2.02468 1.84332C2.16989 1.79068 2.28227 1.6177 2.2926 1.47874C2.29311 1.47188 2.30272 1.46896 2.30713 1.47459C2.39128 1.5821 2.4719 1.82318 2.45241 1.99395Z" fill="#8DC63F"/>
<path fill-rule="evenodd" clip-rule="evenodd" d="M1.79242 1.04337C1.78858 0.989116 1.86486 0.951636 1.91225 0.996874C2.01716 1.09702 2.08551 1.20187 2.11245 1.33877C2.13389 1.4478 2.12848 1.57432 2.09892 1.73106C2.11999 1.71168 2.13976 1.68909 2.15746 1.66406C2.20048 1.60325 2.22711 1.53397 2.23149 1.47505C2.23353 1.44757 2.2545 1.42714 2.27937 1.41986C2.30512 1.41233 2.338 1.41837 2.35738 1.44313C2.4051 1.50408 2.44866 1.59795 2.47791 1.69643C2.50726 1.79521 2.52418 1.90521 2.51343 1.99946C2.48329 2.26368 2.26219 2.53568 1.86931 2.53568C1.54324 2.53568 1.33724 2.37573 1.27215 2.16875C1.20821 1.96542 1.28285 1.72449 1.49419 1.5627C1.65336 1.44085 1.72717 1.38091 1.76403 1.31794C1.79866 1.25878 1.80294 1.19212 1.79242 1.04337L1.85359 1.03992L1.79242 1.04337ZM1.91977 1.18416C1.91753 1.25504 1.90517 1.31317 1.87264 1.36874C1.82231 1.45471 1.72593 1.52956 1.57393 1.64592L1.57393 1.64592C1.3975 1.78098 1.33961 1.97834 1.39016 2.13909C1.43956 2.29619 1.59506 2.42611 1.86931 2.42611C2.18426 2.42611 2.36607 2.21112 2.39148 1.98835C2.40021 1.91182 2.38657 1.81589 2.35944 1.72456C2.34799 1.68603 2.3345 1.64949 2.31999 1.61661C2.3046 1.65341 2.2846 1.68936 2.26106 1.72263C2.20924 1.79589 2.136 1.86205 2.04776 1.89404C1.99092 1.91465 1.944 1.86693 1.95428 1.82362C2.00338 1.61681 2.01415 1.4718 1.99172 1.35775C1.979 1.29311 1.95533 1.23702 1.91977 1.18416Z" fill="#8DC63F"/>
</g>
<defs>
<clipPath id="clip0_1_13714">
<rect width="2.33849" height="2.33849" fill="white" transform="translate(0.665634 0.586914)"/>
</clipPath>
</defs>
</svg>
