<svg width="19" height="19" viewBox="0 0 19 19" fill="none" xmlns="http://www.w3.org/2000/svg">
<path d="M14.1166 10.9851C13.9026 12.8607 12.3508 14.7364 9.62464 14.7364C5.00038 14.7364 4.05517 10.2707 7.04218 7.98404C9.43912 6.14905 9.66421 5.90756 9.50351 3.63648C9.49982 3.58424 9.57072 3.55518 9.61075 3.59339C11.1297 5.04334 11.5064 6.53636 10.741 9.76096C10.7308 9.8038 10.7764 9.84124 10.8218 9.82477C11.9403 9.41921 12.806 8.08674 12.8855 7.01633C12.8895 6.96352 12.9635 6.94104 12.9974 6.98441C13.6457 7.81255 14.2667 9.66956 14.1166 10.9851Z" fill="#8DC63F"/>
<path fill-rule="evenodd" clip-rule="evenodd" d="M9.0327 3.66312C9.00313 3.24517 9.59069 2.95646 9.95574 3.30493C10.7639 4.07637 11.2904 4.884 11.4979 5.93859C11.6631 6.77843 11.6214 7.75301 11.3936 8.9604C11.556 8.81111 11.7082 8.63706 11.8446 8.44431C12.176 7.9759 12.3811 7.44217 12.4148 6.98836C12.4306 6.77663 12.5921 6.61929 12.7837 6.56323C12.982 6.50519 13.2353 6.55169 13.3846 6.74245C13.7522 7.21197 14.0877 7.93506 14.3131 8.69366C14.5391 9.45453 14.6695 10.3019 14.5866 11.0279C14.3545 13.0632 12.6513 15.1584 9.62501 15.1584C7.11329 15.1584 5.52642 13.9263 5.02504 12.3319C4.53252 10.7657 5.10747 8.90975 6.73544 7.6635C7.9615 6.72488 8.53006 6.26318 8.81401 5.77813C9.0808 5.3224 9.11377 4.8089 9.0327 3.66312L9.50388 3.63648L9.0327 3.66312ZM10.0137 4.74763C9.99642 5.29361 9.90125 5.74135 9.65064 6.16945C9.26298 6.83166 8.52053 7.40819 7.34965 8.30457L7.34964 8.30457C5.99062 9.34494 5.54466 10.8652 5.93406 12.1035C6.3146 13.3136 7.51247 14.3143 9.62501 14.3143C12.051 14.3143 13.4515 12.6583 13.6473 10.9423C13.7145 10.3527 13.6095 9.61383 13.4005 8.91028C13.3123 8.61351 13.2083 8.33201 13.0966 8.07874C12.978 8.36223 12.824 8.63914 12.6427 8.89543C12.2434 9.45974 11.6793 9.9694 10.9996 10.2158C10.5617 10.3746 10.2004 10.007 10.2795 9.67336C10.6577 8.08028 10.7407 6.96333 10.5679 6.08477C10.4699 5.58685 10.2876 5.15479 10.0137 4.74763Z" fill="#8DC63F"/>
</svg>
