<svg width="19" height="19" viewBox="0 0 19 19" fill="none" xmlns="http://www.w3.org/2000/svg">
<path d="M14.1169 11.7265C13.9029 13.6022 12.3511 15.4778 9.62492 15.4778C5.00065 15.4778 4.05545 11.0121 7.04245 8.72549C9.43939 6.8905 9.66448 6.64901 9.50379 4.37794C9.50009 4.3257 9.571 4.29664 9.61102 4.33484C11.13 5.78479 11.5067 7.27782 10.7413 10.5024C10.7311 10.5453 10.7766 10.5827 10.822 10.5662C11.9406 10.1607 12.8063 8.8282 12.8858 7.75779C12.8897 7.70498 12.9638 7.6825 12.9977 7.72586C13.646 8.554 14.2669 10.411 14.1169 11.7265Z" fill="#8DC63F"/>
<path fill-rule="evenodd" clip-rule="evenodd" d="M9.03294 4.40445C9.00337 3.9865 9.59094 3.6978 9.95598 4.04626C10.7641 4.8177 11.2906 5.62533 11.4981 6.67992C11.6633 7.51976 11.6216 8.49434 11.3939 9.70173C11.5563 9.55244 11.7085 9.37839 11.8449 9.18564C12.1762 8.71723 12.3813 8.1835 12.4151 7.72969C12.4308 7.51796 12.5924 7.36062 12.7839 7.30456C12.9823 7.24652 13.2355 7.29302 13.3849 7.48379C13.7524 7.95331 14.088 8.6764 14.3133 9.43499C14.5393 10.1959 14.6697 11.0432 14.5869 11.7692C14.3547 13.8045 12.6516 15.8997 9.62525 15.8997C7.11353 15.8997 5.52666 14.6676 5.02529 13.0732C4.53276 11.507 5.10771 9.65109 6.73569 8.40483C7.96175 7.46621 8.53031 7.00451 8.81426 6.51946C9.08104 6.06373 9.11402 5.55024 9.03294 4.40445L9.50413 4.37781L9.03294 4.40445ZM10.0139 5.48896C9.99666 6.03494 9.90149 6.48269 9.65088 6.91079C9.26323 7.57299 8.52078 8.14953 7.3499 9.0459L7.34989 9.0459C5.99086 10.0863 5.54491 11.6065 5.9343 12.8448C6.31485 14.0549 7.51271 15.0557 9.62525 15.0557C12.0513 15.0557 13.4517 13.3996 13.6475 11.6836C13.7148 11.0941 13.6097 10.3552 13.4007 9.65161C13.3125 9.35485 13.2086 9.07334 13.0968 8.82007C12.9782 9.10356 12.8242 9.38048 12.6429 9.63676C12.2437 10.2011 11.6795 10.7107 10.9998 10.9572C10.562 11.1159 10.2006 10.7483 10.2798 10.4147C10.6579 8.82161 10.741 7.70466 10.5681 6.8261C10.4702 6.32819 10.2879 5.89612 10.0139 5.48896Z" fill="#8DC63F"/>
</svg>
