<svg width="56" height="57" viewBox="0 0 56 57" fill="none" xmlns="http://www.w3.org/2000/svg">
<rect x="0.4375" y="0.731934" width="55.125" height="55.125" rx="10.0625" fill="white" fill-opacity="0.3"/>
<path d="M26.2851 42.0536C25.115 28.5966 20.4343 21.5756 15.1685 15.1396C20.4343 18.0651 25.115 25.6712 27.4553 35.0325C27.0593 32.2606 30.1476 26.4916 32.7211 22.1606C33.95 20.0924 35.0614 19.8203 35.6465 17.48C33.8912 19.8203 32.7211 20.9905 30.9602 22.1606C30.3751 18.6501 35.6409 11.6291 41.4917 14.5545C40.9067 24.501 37.4018 22.1607 33.8912 24.501C31.0828 26.3733 29.6006 36.9828 29.2106 42.0536H26.2851Z" fill="white"/>
<rect x="0.4375" y="0.731934" width="55.125" height="55.125" rx="10.0625" stroke="white" stroke-width="0.875"/>
</svg>
