<svg width="42" height="32" viewBox="0 0 42 32" fill="none" xmlns="http://www.w3.org/2000/svg">
<path fill-rule="evenodd" clip-rule="evenodd" d="M26.2549 31.5065C24.0467 27.2373 22.9425 22.6 22.9425 17.5946C22.9425 12.5157 24.2859 8.32001 26.9726 5.00765C29.6593 1.69529 33.8365 0.0391083 39.5043 0.0391083V6.99507C37.5169 6.99507 36.0631 7.43672 35.143 8.32001C34.2229 9.20331 33.7629 10.8963 33.7629 13.399V14.5031H41.823V31.5065H26.2549ZM3.40039 31.5068C1.19216 27.2375 0.0880432 22.6002 0.0880432 17.5948C0.0880432 12.5159 1.43139 8.32024 4.11807 5.00787C6.80476 1.69552 10.982 0.0393317 16.6498 0.0393317V6.99529C14.6624 6.99529 13.2086 7.43694 12.2885 8.32024C11.3684 9.20354 10.9084 10.8965 10.9084 13.3992V14.5033H18.9685V31.5068H3.40039Z" fill="#8DC63F"/>
</svg>
