<svg width="24" height="25" viewBox="0 0 24 25" fill="none" xmlns="http://www.w3.org/2000/svg">
<g clip-path="url(#clip0_6_593908)">
<path d="M17.7703 10.8913C18.3188 9.36318 19.8985 4.94287 19.8985 3.52725C19.8985 2.28037 19.1625 1.23506 17.85 1.23506C15.7594 1.23506 13.8844 7.4085 13.2985 8.88037C12.8438 7.54443 10.7156 0.794434 8.84064 0.794434C7.38283 0.794434 6.69846 1.86787 6.69846 3.21787C6.69846 4.87256 8.30158 9.16162 8.88283 10.8116C8.58752 10.7038 8.26877 10.6101 7.94533 10.6101C6.84846 10.6101 5.68127 11.9741 5.68127 13.0757C5.68127 13.4929 5.91096 14.0788 6.05627 14.4679C4.32658 14.9366 3.66095 16.0897 3.66095 17.8288C3.65627 21.2132 6.86252 24.7944 11.3719 24.7944C16.9031 24.7944 20.3438 20.6413 20.3438 15.2835C20.3438 13.2632 20.0203 11.4397 17.7703 10.8913V10.8913ZM16.111 5.85693C16.2985 5.28037 17.1 2.84287 17.85 2.84287C18.2531 2.84287 18.361 3.26006 18.361 3.59287C18.361 4.48818 16.5516 9.4335 16.1531 10.5304L14.5594 10.2491L16.111 5.85693V5.85693ZM8.17033 3.0585C8.17033 2.50068 8.85002 0.916309 10.3406 5.26631L11.9625 9.96787C11.2313 9.90693 10.6641 9.82725 10.3031 10.0335C9.79221 8.6835 8.17033 4.42256 8.17033 3.0585V3.0585ZM8.06252 12.2319C9.43596 12.2319 11.2078 16.6663 11.2078 17.2663C11.2078 17.5054 10.9781 17.8007 10.711 17.8007C9.73127 17.8007 7.10627 14.196 7.10627 13.221C7.11095 12.8601 7.70158 12.2319 8.06252 12.2319V12.2319ZM16.7016 20.9647C15.3375 22.4647 13.5938 23.2429 11.5594 23.2429C8.77502 23.2429 6.57658 21.7147 5.5172 19.1038C4.71564 17.0694 5.69533 15.9022 6.48283 15.9022C7.01721 15.9022 9.02814 18.7288 9.02814 19.3288C9.02814 19.5585 8.6672 19.7179 8.4797 19.7179C7.72502 19.7179 7.42971 18.9913 6.08439 17.3085C4.69221 18.7007 7.04533 21.3819 8.81721 21.3819C10.0406 21.3819 10.8375 20.2476 10.5985 19.4132C10.7719 19.4132 10.9875 19.4272 11.1469 19.3851C11.1985 20.6554 11.5735 22.1694 13.1016 22.2772C13.1016 22.2351 13.1953 21.9444 13.1953 21.9304C13.1953 21.1147 12.6985 20.4022 12.6985 19.5726C12.6985 18.246 13.7156 16.9616 14.7469 16.2116C15.1219 15.9304 15.5766 15.7569 16.0172 15.5976C16.4719 15.4241 16.9547 15.2226 17.3016 14.8757C17.25 14.3507 17.0344 13.8866 16.5094 13.8866C15.211 13.8866 10.8563 14.0741 10.8563 12.0257C10.8563 11.7116 10.861 11.4116 11.6719 11.4116C13.186 11.4116 17.0297 11.7866 18.1547 12.7757C19.0031 13.5304 19.2938 18.0819 16.7016 20.9647V20.9647ZM12.0797 15.0585C12.5344 15.2038 13.0031 15.246 13.4719 15.3397C13.125 15.5929 12.8156 15.9022 12.5203 16.2351C12.3891 15.8366 12.2297 15.4476 12.0797 15.0585V15.0585Z" fill="#98A2B3"/>
</g>
<defs>
<clipPath id="clip0_6_593908">
<rect width="24" height="24" fill="white" transform="translate(0 0.794434)"/>
</clipPath>
</defs>
</svg>
