<svg width="24" height="25" viewBox="0 0 24 25" fill="none" xmlns="http://www.w3.org/2000/svg">
<path d="M7.55016 22.5444C16.6045 22.5444 21.5583 15.0411 21.5583 8.53629C21.5583 8.32536 21.5536 8.10973 21.5442 7.89879C22.5079 7.20189 23.3395 6.33869 24 5.34973C23.1025 5.74903 22.1496 6.00982 21.1739 6.12317C22.2013 5.50734 22.9705 4.53991 23.3391 3.4002C22.3726 3.97299 21.3156 4.37705 20.2134 4.59504C19.4708 3.80599 18.489 3.28355 17.4197 3.10848C16.3504 2.93342 15.2532 3.11548 14.2977 3.62653C13.3423 4.13758 12.5818 4.94914 12.1338 5.93575C11.6859 6.92235 11.5754 8.02905 11.8195 9.08473C9.86249 8.98652 7.94794 8.47814 6.19998 7.59253C4.45203 6.70693 2.90969 5.46387 1.67297 3.94395C1.0444 5.02768 0.852057 6.31008 1.13503 7.53052C1.418 8.75097 2.15506 9.81788 3.19641 10.5144C2.41463 10.4896 1.64998 10.2791 0.965625 9.90036V9.96129C0.964925 11.0986 1.3581 12.201 2.07831 13.0812C2.79852 13.9614 3.80132 14.565 4.91625 14.7894C4.19206 14.9876 3.43198 15.0164 2.69484 14.8738C3.00945 15.8519 3.62157 16.7073 4.44577 17.3208C5.26997 17.9342 6.26512 18.275 7.29234 18.2957C5.54842 19.6655 3.39417 20.4086 1.17656 20.405C0.783287 20.4044 0.390399 20.3803 0 20.3329C2.25286 21.7782 4.87353 22.5458 7.55016 22.5444Z" fill="#98A2B3"/>
</svg>
