<svg width="16" height="16" viewBox="0 0 16 16" fill="none" xmlns="http://www.w3.org/2000/svg">
<g clip-path="url(#clip0_1_12678)">
<path d="M7.46977 2.09103C7.59796 1.78282 8.03458 1.78281 8.16278 2.09103L9.7135 5.81942C9.76754 5.94936 9.88974 6.03814 10.03 6.04938L14.0551 6.37207C14.3879 6.39875 14.5228 6.814 14.2693 7.03116L11.2026 9.65813C11.0957 9.74968 11.049 9.89333 11.0817 10.0302L12.0186 13.958C12.0961 14.2827 11.7428 14.5394 11.4579 14.3654L8.01189 12.2605C7.89179 12.1872 7.74075 12.1872 7.62065 12.2605L4.1746 14.3654C3.88972 14.5394 3.53649 14.2827 3.61394 13.958L4.55087 10.0302C4.58353 9.89333 4.53685 9.74968 4.42998 9.65813L1.36326 7.03116C1.10975 6.814 1.24467 6.39875 1.57742 6.37207L5.60253 6.04938C5.7428 6.03814 5.865 5.94936 5.91904 5.81942L7.46977 2.09103Z" fill="#F2F4F7"/>
<g clip-path="url(#clip1_1_12678)">
<path d="M7.46977 2.09103C7.59796 1.78282 8.03458 1.78281 8.16278 2.09103L9.7135 5.81942C9.76754 5.94936 9.88974 6.03814 10.03 6.04938L14.0551 6.37207C14.3879 6.39875 14.5228 6.814 14.2693 7.03116L11.2026 9.65813C11.0957 9.74968 11.049 9.89333 11.0817 10.0302L12.0186 13.958C12.0961 14.2827 11.7428 14.5394 11.4579 14.3654L8.01189 12.2605C7.89179 12.1872 7.74075 12.1872 7.62065 12.2605L4.1746 14.3654C3.88972 14.5394 3.53649 14.2827 3.61394 13.958L4.55087 10.0302C4.58353 9.89333 4.53685 9.74968 4.42998 9.65813L1.36326 7.03116C1.10975 6.814 1.24467 6.39875 1.57742 6.37207L5.60253 6.04938C5.7428 6.03814 5.865 5.94936 5.91904 5.81942L7.46977 2.09103Z" fill="#FAC515"/>
</g>
</g>
<defs>
<clipPath id="clip0_1_12678">
<rect width="15.0112" height="15.0112" fill="white" transform="translate(0.310669 0.88269)"/>
</clipPath>
<clipPath id="clip1_1_12678">
<rect width="15.0112" height="15.0112" fill="white" transform="translate(0.310669 0.88269)"/>
</clipPath>
</defs>
</svg>
