<svg width="3" height="3" viewBox="0 0 3 3" fill="none" xmlns="http://www.w3.org/2000/svg">
<g clip-path="url(#clip0_1_13704)">
<path d="M1.1898 0.269407C1.20644 0.229394 1.26312 0.229394 1.27976 0.269407L1.48108 0.753424C1.48809 0.770292 1.50395 0.781817 1.52217 0.783277L2.0447 0.825169C2.0879 0.828632 2.10541 0.882539 2.0725 0.910731L1.67439 1.25176C1.66051 1.26365 1.65445 1.2823 1.65869 1.30007L1.78032 1.80997C1.79038 1.85213 1.74452 1.88544 1.70754 1.86285L1.26017 1.58961C1.24458 1.58008 1.22497 1.58008 1.20938 1.58961L0.762019 1.86285C0.725037 1.88544 0.67918 1.85213 0.689235 1.80997L0.810867 1.30007C0.815106 1.2823 0.809046 1.26365 0.795172 1.25176L0.397054 0.910731C0.364142 0.882539 0.381658 0.828632 0.424855 0.825169L0.947392 0.783277C0.965602 0.781817 0.981466 0.770292 0.988481 0.753424L1.1898 0.269407Z" fill="#F2F4F7"/>
<g clip-path="url(#clip1_1_13704)">
<path d="M1.1898 0.269407C1.20644 0.229394 1.26312 0.229394 1.27976 0.269407L1.48108 0.753424C1.48809 0.770292 1.50395 0.781817 1.52217 0.783277L2.0447 0.825169C2.0879 0.828632 2.10541 0.882539 2.0725 0.910731L1.67439 1.25176C1.66051 1.26365 1.65445 1.2823 1.65869 1.30007L1.78032 1.80997C1.79038 1.85213 1.74452 1.88544 1.70754 1.86285L1.26017 1.58961C1.24458 1.58008 1.22497 1.58008 1.20938 1.58961L0.762019 1.86285C0.725037 1.88544 0.67918 1.85213 0.689235 1.80997L0.810867 1.30007C0.815106 1.2823 0.809046 1.26365 0.795172 1.25176L0.397054 0.910731C0.364142 0.882539 0.381658 0.828632 0.424855 0.825169L0.947392 0.783277C0.965602 0.781817 0.981466 0.770292 0.988481 0.753424L1.1898 0.269407Z" fill="#FAC515"/>
</g>
</g>
<defs>
<clipPath id="clip0_1_13704">
<rect width="1.94874" height="1.94874" fill="white" transform="translate(0.260406 0.112549)"/>
</clipPath>
<clipPath id="clip1_1_13704">
<rect width="1.94874" height="1.94874" fill="white" transform="translate(0.260406 0.112549)"/>
</clipPath>
</defs>
</svg>
