<svg width="20" height="21" viewBox="0 0 20 21" fill="none" xmlns="http://www.w3.org/2000/svg">
<g clip-path="url(#clip0_1_13065)">
<path d="M9.53834 1.92018C9.70914 1.50953 10.2909 1.50953 10.4617 1.92018L12.5278 6.88765C12.5998 7.06077 12.7626 7.17906 12.9495 7.19404L18.3123 7.62397C18.7556 7.65952 18.9354 8.21277 18.5976 8.5021L14.5117 12.0021C14.3693 12.1241 14.3071 12.3155 14.3506 12.4979L15.5989 17.731C15.7021 18.1637 15.2315 18.5056 14.8519 18.2738L10.2606 15.4694C10.1006 15.3717 9.89938 15.3717 9.73937 15.4694L5.14806 18.2738C4.76851 18.5056 4.29788 18.1637 4.40108 17.731L5.64939 12.4979C5.69289 12.3155 5.6307 12.1241 5.48831 12.0021L1.40241 8.5021C1.06464 8.21277 1.24441 7.65952 1.68773 7.62397L7.05054 7.19404C7.23744 7.17906 7.40024 7.06077 7.47225 6.88765L9.53834 1.92018Z" fill="#F2F4F7"/>
<g clip-path="url(#clip1_1_13065)">
<path d="M9.53834 1.92018C9.70914 1.50953 10.2909 1.50953 10.4617 1.92018L12.5278 6.88765C12.5998 7.06077 12.7626 7.17906 12.9495 7.19404L18.3123 7.62397C18.7556 7.65952 18.9354 8.21277 18.5976 8.5021L14.5117 12.0021C14.3693 12.1241 14.3071 12.3155 14.3506 12.4979L15.5989 17.731C15.7021 18.1637 15.2315 18.5056 14.8519 18.2738L10.2606 15.4694C10.1006 15.3717 9.89938 15.3717 9.73937 15.4694L5.14806 18.2738C4.76851 18.5056 4.29788 18.1637 4.40108 17.731L5.64939 12.4979C5.69289 12.3155 5.6307 12.1241 5.48831 12.0021L1.40241 8.5021C1.06464 8.21277 1.24441 7.65952 1.68773 7.62397L7.05054 7.19404C7.23744 7.17906 7.40024 7.06077 7.47225 6.88765L9.53834 1.92018Z" fill="#FEC04B"/>
</g>
</g>
<defs>
<clipPath id="clip0_1_13065">
<rect width="20" height="20" fill="white" transform="translate(0 0.310211)"/>
</clipPath>
<clipPath id="clip1_1_13065">
<rect width="20" height="20" fill="white" transform="translate(0 0.310211)"/>
</clipPath>
</defs>
</svg>
