<svg width="16" height="16" viewBox="0 0 16 16" fill="none" xmlns="http://www.w3.org/2000/svg">
<g clip-path="url(#clip0_1_12708)">
<path d="M7.46955 1.35019C7.59775 1.04197 8.03437 1.04197 8.16256 1.35018L9.71329 5.07858C9.76733 5.20851 9.88952 5.29729 10.0298 5.30854L14.0549 5.63123C14.3877 5.65791 14.5226 6.07316 14.2691 6.29032L11.2024 8.91728C11.0955 9.00883 11.0488 9.15248 11.0815 9.28937L12.0184 13.2172C12.0958 13.5419 11.7426 13.7985 11.4577 13.6245L8.01167 11.5197C7.89158 11.4463 7.74054 11.4463 7.62044 11.5197L4.17438 13.6245C3.88951 13.7985 3.53628 13.5419 3.61373 13.2172L4.55066 9.28937C4.58331 9.15248 4.53664 9.00883 4.42976 8.91728L1.36305 6.29032C1.10954 6.07316 1.24446 5.65791 1.5772 5.63123L5.60231 5.30854C5.74259 5.29729 5.86478 5.20851 5.91883 5.07858L7.46955 1.35019Z" fill="#F2F4F7"/>
<g clip-path="url(#clip1_1_12708)">
<path d="M7.46955 1.35019C7.59775 1.04197 8.03437 1.04197 8.16256 1.35018L9.71329 5.07858C9.76733 5.20851 9.88952 5.29729 10.0298 5.30854L14.0549 5.63123C14.3877 5.65791 14.5226 6.07316 14.2691 6.29032L11.2024 8.91728C11.0955 9.00883 11.0488 9.15248 11.0815 9.28937L12.0184 13.2172C12.0958 13.5419 11.7426 13.7985 11.4577 13.6245L8.01167 11.5197C7.89158 11.4463 7.74054 11.4463 7.62044 11.5197L4.17438 13.6245C3.88951 13.7985 3.53628 13.5419 3.61373 13.2172L4.55066 9.28937C4.58331 9.15248 4.53664 9.00883 4.42976 8.91728L1.36305 6.29032C1.10954 6.07316 1.24446 5.65791 1.5772 5.63123L5.60231 5.30854C5.74259 5.29729 5.86478 5.20851 5.91883 5.07858L7.46955 1.35019Z" fill="#FAC515"/>
</g>
</g>
<defs>
<clipPath id="clip0_1_12708">
<rect width="15.0112" height="15.0112" fill="white" transform="translate(0.310455 0.141846)"/>
</clipPath>
<clipPath id="clip1_1_12708">
<rect width="15.0112" height="15.0112" fill="white" transform="translate(0.310455 0.141846)"/>
</clipPath>
</defs>
</svg>
