<svg width="16" height="16" viewBox="0 0 16 16" fill="none" xmlns="http://www.w3.org/2000/svg">
<g id="tag-01">
<g id="Icon">
<path d="M1.95785 7.95821C1.72724 7.72761 1.61194 7.61231 1.52949 7.47775C1.45638 7.35846 1.40251 7.2284 1.36985 7.09235C1.33301 6.9389 1.33301 6.77584 1.33301 6.44972L1.33301 3.46671C1.33301 2.71997 1.33301 2.3466 1.47833 2.06139C1.60616 1.8105 1.81014 1.60653 2.06102 1.4787C2.34624 1.33337 2.7196 1.33337 3.46634 1.33337L6.44935 1.33337C6.77547 1.33337 6.93853 1.33337 7.09198 1.37021C7.22803 1.40288 7.35809 1.45675 7.47739 1.52985C7.61194 1.61231 7.72724 1.72761 7.95785 1.95821L13.0703 7.07063C13.8623 7.86267 14.2583 8.25868 14.4067 8.71534C14.5372 9.11703 14.5372 9.54972 14.4067 9.95141C14.2583 10.4081 13.8623 10.8041 13.0703 11.5961L11.5958 13.0706C10.8037 13.8627 10.4077 14.2587 9.95104 14.4071C9.54935 14.5376 9.11666 14.5376 8.71497 14.4071C8.25832 14.2587 7.8623 13.8627 7.07027 13.0706L1.95785 7.95821Z" fill="#F97066"/>
<path d="M5.66634 5.33337C5.66634 5.51747 5.5171 5.66671 5.33301 5.66671C5.14891 5.66671 4.99968 5.51747 4.99968 5.33337C4.99968 5.14928 5.14891 5.00004 5.33301 5.00004C5.5171 5.00004 5.66634 5.14928 5.66634 5.33337Z" fill="#F97066"/>
</g>
</g>
</svg>
