<svg width="20" height="21" viewBox="0 0 20 21" fill="none" xmlns="http://www.w3.org/2000/svg">
<path d="M7.36796 18.2944C5.34609 18.2944 3.46136 17.7064 1.875 16.6917C3.22187 16.7788 5.59879 16.5701 7.07724 15.1599C4.85317 15.0579 3.85016 13.3521 3.71934 12.6232C3.90831 12.6961 4.80956 12.7835 5.31834 12.5794C2.75994 11.9379 2.36745 9.69276 2.45467 9.00754C2.93437 9.34286 3.74841 9.45949 4.06821 9.43034C1.68425 7.72458 2.54189 5.15866 2.96345 4.60465C4.67427 6.97485 7.23825 8.30604 10.4102 8.38009C10.3504 8.11778 10.3188 7.8447 10.3188 7.56421C10.3188 5.55126 11.9459 3.91943 13.9529 3.91943C15.0016 3.91943 15.9465 4.3649 16.6098 5.07746C17.3106 4.91325 18.3652 4.52885 18.8808 4.19644C18.6209 5.1295 17.8118 5.90786 17.3224 6.19636C17.3265 6.20617 17.3185 6.1865 17.3224 6.19636C17.7523 6.13133 18.9155 5.90779 19.375 5.59603C19.1478 6.12022 18.29 6.99176 17.5861 7.4797C17.717 13.2557 13.2978 18.2944 7.36796 18.2944Z" fill="#47ACDF"/>
</svg>
